<?xml version="1.0" encoding="utf-8"?>
<!-- Generator: Adobe Illustrator 24.2.1, SVG Export Plug-In . SVG Version: 6.00 Build 0)  -->
<svg version="1.1" id="Capa_1" xmlns="http://www.w3.org/2000/svg" xmlns:xlink="http://www.w3.org/1999/xlink" x="0px" y="0px"
	 viewBox="0 0 858.2 245.9" style="enable-background:new 0 0 858.2 245.9;" xml:space="preserve">
<style type="text/css">
	.st0{fill:#26D700;}
	.st1{fill:#212605;}
</style>
<g>
	<g>
		<path class="st0" d="M120.5,9.1C57.6,9.1,6.7,60.1,6.7,122.9c0,9,1,17.8,3.1,26.2c4.2,0,8.1,1.1,11.5,2.9
			c6.8-3.1,14.1-5.3,21.7-6.4c3.8-0.6,7.8-0.9,11.8-0.9c0.2,0,0.5,0,0.7,0c11.6,0.1,22.5,2.6,32.4,7c3.5,1.6,6.8,3.4,10,5.4
			l1.7-11.7l6.5-43.9l2-13.8c0,0,0.3-0.3,0.3-0.3c0.3-7.1,3-13.6,7.4-18.6c2.4-2.8,5.4-5.1,8.6-6.8c3.2-1.7,6.7-2.8,10.4-3.2
			l2.6-2.8l8.8-9.6l5.2-5.6c0.9,2.1,1.3,4.4,1.3,6.8c0,1.1-0.1,2.1-0.3,3.2c-0.4,2.4-1.3,4.6-2.5,6.5c-0.6,1-1.4,1.9-2.3,2.8
			c-0.8,0.9-1.8,1.7-2.8,2.4c0.2,0,0.3,0,0.5,0c0.1,0,0.3,0,0.4,0c1.5-0.1,3.1-0.6,4.3-1.5c0.5-0.4,0.9-0.9,1.3-1.3
			c0.4-0.4,0.9-0.8,1.4-1.1c1.3-0.8,2.8-1.1,4.2-1.1c0.3,0,0.6,0,0.8,0.1c0.1,0,0.2,0,0.4,0.1c0.5,0.1,1,0.2,1.4,0.3
			c0.1,0,0.1,0,0.1,0c2.6,0.7,5,1.8,7.1,3.3c2.7,1.8,4.9,4.1,6.6,6.7c0.1,0.1,0.2,0.3,0.3,0.4c0.1,0.1,0.2,0.3,0.3,0.4
			c0.2,0.3,0.3,0.6,0.5,0.9c0.1,0.1,0.1,0.2,0.2,0.3c0.4,1,0.6,2,0.6,3.1c0,3.2-2,6.1-4.8,7.3c2.3,1.4,4.6,3,6.8,4.6
			c2.4,1.8,4.7,3.7,6.8,5.8c0.1,0,0.1,0.1,0.1,0.1c0.1,0.1,0.1,0.1,0.1,0.2c0,0,0.1,0,0.1,0.1c0.4,0.3,0.7,0.7,1.1,1
			c0.2,0.3,0.3,0.7,0.3,1.1c0,1.3-1,2.4-2.4,2.4c1.6,0.1,2.8,1.4,2.8,3.1c0,0.6-0.2,1.2-0.5,1.6c-0.1,0.1-0.2,0.3-0.3,0.4
			c-0.1,0.1-0.2,0.2-0.3,0.3c-1.3,1.3-3,2-4.8,2c-0.2,0-0.4,0-0.6,0c1,0.2,1.7,1.1,1.7,2.1c0,0.5-0.2,1-0.5,1.4
			c-0.3,0.3-0.5,0.5-0.8,0.7c0,0-0.1,0-0.1,0c-6.3,5-13.6,8.6-21.7,10.4l-8.4,56.6c-0.1,0.6-0.2,1.2-0.3,1.8
			c-0.8,4.8-2.8,9.2-5.8,12.9c-1.7,6.3-5.9,11.6-11.4,14.8c-1.3,0.8-2.7,1.4-4.1,1.9c-1.6,10.6-9.8,18.9-20.3,20.7c0,0,0,0,0,0
			c-0.5,1.2-1.1,2.4-1.8,3.6c-0.1,0.1-0.2,0.2-0.2,0.3c-0.6,1.1-1.4,2.1-2.2,3c-0.6,0.6-1.2,1.3-1.8,1.9l0,0c5.9,1,12,1.4,18.2,1.4
			c62.8,0,113.8-51,113.8-113.8C234.3,60.1,183.4,9.1,120.5,9.1z"/>
		<path class="st0" d="M160.6,83.8c0,0.8-0.4,1.4-1.1,1.7c-0.2,0.1-0.5,0.2-0.8,0.2c-0.2,0.1-0.4,0.1-0.6,0.1c-1.8,0-3.4-1-4.2-2.5
			c-0.3,0.2-0.6,0.3-0.9,0.3c-0.6,0-1-0.2-1.4-0.7c0.6-0.3,1.2-0.6,1.9-0.8c0.4-0.1,0.9-0.2,1.3-0.3c0.5-0.1,1-0.1,1.5-0.1
			c1,0,1.9,0.1,2.8,0.4c0.1,0,0.2,0.1,0.3,0.1C160.2,82.4,160.6,83,160.6,83.8z"/>
		<path class="st0" d="M106.6,230.1c0.7-1.1,1.3-2.3,1.8-3.6c0,0,0,0,0,0C107.8,227.7,107.2,228.9,106.6,230.1z"/>
		<path class="st0" d="M106.3,230.4c-0.7,1.1-1.4,2.1-2.2,3C104.9,232.5,105.7,231.5,106.3,230.4z"/>
	</g>
	<g>
		<path class="st1" d="M724.6,98.7c-4.5,6.2-11.7,10.2-19.9,10.2c-13.5,0-24.5-11-24.5-24.5c0-13.5,11-24.5,24.5-24.5
			c8.2,0,15.4,4,19.9,10.2L743,51.5c-9.2-10.8-23-17.6-38.3-17.6c-27.8,0-50.4,22.6-50.4,50.4c0,27.8,22.6,50.4,50.4,50.4
			c15.3,0,29-6.8,38.3-17.6L724.6,98.7z"/>
		<path class="st1" d="M826,36.2v4.3c-7.3-4.2-15.8-6.6-24.8-6.6c-27.8,0-50.4,22.6-50.4,50.4s22.6,50.4,50.4,50.4
			c9,0,17.5-2.4,24.8-6.6l9.9,6.7h15.7V36.2H826z M801.2,109.1c-13.7,0-24.8-11.1-24.8-24.8c0-13.7,11.1-24.8,24.8-24.8
			c13.7,0,24.8,11.1,24.8,24.8C826,98,814.9,109.1,801.2,109.1z"/>
		<path class="st1" d="M620.5,36.2v4.3c-7.3-4.2-15.8-6.6-24.8-6.6c-27.8,0-50.4,22.6-50.4,50.4s22.6,50.4,50.4,50.4
			c9,0,17.5-2.4,24.8-6.6l9.9,6.7h15.7V36.2H620.5z M595.7,109.1c-13.7,0-24.8-11.1-24.8-24.8c0-13.7,11.1-24.8,24.8-24.8
			c13.7,0,24.8,11.1,24.8,24.8C620.5,98,609.4,109.1,595.7,109.1z"/>
		<path class="st1" d="M486.6,33.9c-9,0-17.5,2.4-24.8,6.6v-4.3h-25.5v125.6h25.5v-33.6c7.3,4.2,15.8,6.6,24.8,6.6
			c27.8,0,50.4-22.6,50.4-50.4S514.5,33.9,486.6,33.9z M486.6,109.1c-13.7,0-24.8-11.1-24.8-24.8c0-13.7,11.1-24.8,24.8-24.8
			c13.7,0,24.8,11.1,24.8,24.8C511.4,98,500.3,109.1,486.6,109.1z"/>
		
			<rect x="394.1" y="9.1" transform="matrix(-1 -1.224647e-16 1.224647e-16 -1 813.8062 143.8035)" class="st1" width="25.5" height="125.6"/>
		<path class="st1" d="M352,36.2v4.3c-7.3-4.2-15.8-6.6-24.8-6.6c-27.8,0-50.4,22.6-50.4,50.4s22.6,50.4,50.4,50.4
			c9,0,17.5-2.4,24.8-6.6l9.9,6.7h15.7V36.2H352z M327.2,109.1c-13.7,0-24.8-11.1-24.8-24.8c0-13.7,11.1-24.8,24.8-24.8
			c13.7,0,24.8,11.1,24.8,24.8C352,98,340.9,109.1,327.2,109.1z"/>
	</g>
	<g>
		<polygon class="st1" points="292,218.9 312.3,218.9 312.3,211.9 292,211.9 292,201.6 315.4,201.6 315.4,194.5 284.5,194.5 
			284.5,236.7 315.7,236.7 315.7,229.7 292,229.7 		"/>
		<polygon class="st1" points="378.9,194.5 369.9,194.5 359.1,209.1 348.3,194.5 339.3,194.5 354.6,215.2 338.7,236.7 347.7,236.7 
			359.1,221.3 370.5,236.7 379.5,236.7 363.6,215.2 		"/>
		<path class="st1" d="M421.2,194.5h-18.7v42.2h7.5v-15.2h11.2c4.1,0,7.4-1.3,10.2-3.8c2.8-2.6,4.2-5.8,4.2-9.6
			c0-3.8-1.4-7.1-4.2-9.6C428.6,195.8,425.2,194.5,421.2,194.5z M427.7,208c0,3.7-2.8,6.4-6.5,6.4H410v-12.9h11.2
			C424.9,201.6,427.7,204.3,427.7,208z"/>
		<polygon class="st1" points="466,218.9 486.3,218.9 486.3,211.9 466,211.9 466,201.6 489.4,201.6 489.4,194.5 458.5,194.5 
			458.5,236.7 489.7,236.7 489.7,229.7 466,229.7 		"/>
		<path class="st1" d="M529.7,194.5h-17v42.2h17c6.2,0,11.4-2,15.6-6.1c4.2-4,6.3-9.1,6.3-15c0-5.9-2.1-11-6.3-15
			C541.1,196.6,535.9,194.5,529.7,194.5z M543.8,215.6c0,3.9-1.4,7.3-4.1,10c-2.7,2.7-6.1,4.1-10.1,4.1h-9.5v-28.1h9.5
			c4,0,7.4,1.4,10.1,4.1C542.5,208.3,543.8,211.6,543.8,215.6z"/>
		<rect x="574.6" y="194.5" class="st1" width="7.5" height="42.2"/>
		<polygon class="st1" points="605,201.6 619.6,201.6 619.6,236.7 627.1,236.7 627.1,201.6 641.7,201.6 641.7,194.5 605,194.5 		"/>
		<rect x="664.7" y="194.5" class="st1" width="7.5" height="42.2"/>
		<polygon class="st1" points="789.7,223.6 766.7,194.5 760.2,194.5 760.2,236.7 767.5,236.7 767.5,207.7 790.5,236.7 797,236.7 
			797,194.5 789.7,194.5 		"/>
		<path class="st1" d="M846.9,215.4c-1.4-1-3.1-1.7-4.7-2.3c-3-1-6.1-1.5-9-2.6c-2-0.7-4.2-2.1-4.3-4.2c-0.1-1.3,0.6-2.5,1.7-3.3
			s2.3-1.1,3.6-1.3c1.8-0.2,3.6-0.1,5.3,0.7c1.6,0.8,3,2.2,3.4,3.9c2.4-0.7,4.9-1.4,7.3-2.1c-0.6-2.5-2.2-4.7-4.3-6.3
			c-2-1.6-4.5-2.5-7-3c-3.2-0.6-6.6-0.5-9.6,0.7c-3,1.2-5.7,3.5-7.1,6.5c-1.4,3-1.4,6.6,0.3,9.4c1.6,2.8,4.6,4.6,7.6,5.7
			s6.3,1.7,9.3,2.8c1.1,0.4,2.2,0.9,3.1,1.6c0.9,0.8,1.5,1.8,1.6,3c0,1.2-0.6,2.3-1.4,3.1c-0.9,0.8-1.9,1.3-3.1,1.6
			c-2.3,0.6-4.7,0.6-7,0c-2.4-0.7-4.8-2.5-5.2-5c-2.4,0.8-4.9,1.5-7.3,2.3c0.7,1.9,1.5,3.7,2.9,5.2c1.3,1.4,2.9,2.4,4.6,3.2
			c1.4,0.7,3,1.1,4.5,1.4c3.5,0.7,7.3,0.6,10.6-0.7c3.4-1.3,6.3-3.7,7.8-7c1.5-3.3,1.4-7.3-0.7-10.3
			C849.1,217.1,848.1,216.2,846.9,215.4z"/>
		<path class="st1" d="M716.2,194.6c-11.6,0-21.1,9.4-21.1,21.1c0,11.6,9.4,21.1,21.1,21.1s21.1-9.4,21.1-21.1
			C737.3,204,727.8,194.6,716.2,194.6z M716.2,229.5c-7.7,0-13.9-6.2-13.9-13.9c0-7.7,6.2-13.9,13.9-13.9s13.9,6.2,13.9,13.9
			C730.1,223.3,723.9,229.5,716.2,229.5z"/>
	</g>
</g>
</svg>
